PathFileType	4	(X/Y/Z)	Walk5.trc
DataRate	CameraRate	NumFrames	NumMarkers	Units	OrigDataRate	OrigDataStartFrame	OrigNumFrames
200.000000	200.000000	4	57	mm	200.000000	388	539
Frame#	Times		RBHD		C7		RASI		RACR1		RUA1		RFA1		LFA1		RTH3		RTH2		RWRU		RCAR		RElbow		RBack		LTH2		RTH1		LElbowM		RTB3		RMT1		RTH4		RMT5		RLFC		RTB1		RTB4		LTH4		RTB2		LACR1		LElbow		LWRU		LTH3		CLAV		LTB1		LPSI		T10		RPSI		RWRR		LTH1		LBHD		LLFC		LTB3		LTB4		RToe		LCAL		RFHD		LTB2		LMMAL		LASI		LWRR		LLMAL		RElbowM		LMT1		LToe		RLMAL		RMMAL		LMT5		LUA1		LCAR		RCAL
			X1	Y1	Z1	X2	Y2	Z2	X3	Y3	Z3	X4	Y4	Z4	X5	Y5	Z5	X6	Y6	Z6	X7	Y7	Z7	X8	Y8	Z8	X9	Y9	Z9	X10	Y10	Z10	X11	Y11	Z11	X12	Y12	Z12	X13	Y13	Z13	X14	Y14	Z14	X15	Y15	Z15	X16	Y16	Z16	X17	Y17	Z17	X18	Y18	Z18	X19	Y19	Z19	X20	Y20	Z20	X21	Y21	Z21	X22	Y22	Z22	X23	Y23	Z23	X24	Y24	Z24	X25	Y25	Z25	X26	Y26	Z26	X27	Y27	Z27	X28	Y28	Z28	X29	Y29	Z29	X30	Y30	Z30	X31	Y31	Z31	X32	Y32	Z32	X33	Y33	Z33	X34	Y34	Z34	X35	Y35	Z35	X36	Y36	Z36	X37	Y37	Z37	X38	Y38	Z38	X39	Y39	Z39	X40	Y40	Z40	X41	Y41	Z41	X42	Y42	Z42	X43	Y43	Z43	X44	Y44	Z44	X45	Y45	Z45	X46	Y46	Z46	X47	Y47	Z47	X48	Y48	Z48	X49	Y49	Z49	X50	Y50	Z50	X51	Y51	Z51	X52	Y52	Z52	X53	Y53	Z53	X54	Y54	Z54	X55	Y55	Z55	X56	Y56	Z56	X57	Y57	Z57

388	1.94	378.29	1599.2	387.53	344.34	1456	325.11	413.24	947.51	456.27	403.25	1408.9	474.54	350.55	1223.8	560.32	367.4	961.93	613.8	351.7	982.68	6.4024	424.16	557.24	481.57	467.78	669.29	476.17	383.17	833.95	606.77	436.34	791.24	613.7	304.96	1099.2	592.38	266.92	1365.7	418.37	493.49	674.93	163.49	374.03	739.58	492.96	261.96	1125	119.51	276.36	240.91	379.25	237.47	76.688	336.94	398.62	647.1	490.78	209.39	86.559	415.66	432.45	462.69	471.54	418.71	365.35	388.18	351.25	303.42	385.06	426.95	662.17	124.91	332.27	314.67	456.56	386.07	1439.3	150.31	286.7	1124.6	44.13	316.68	866.98	4.7614	437.47	574.9	144.57	476.92	1371.5	315.39	472.01	367.42	232.31	257.69	979.17	233.33	243.77	1147.6	298.02	243.81	975.06	337.36	451.81	849.41	572.71	416.47	758.96	113.4	376.92	1587.7	249.03	440.41	457.96	165.42	429.12	187.11	249.47	447.74	277.31	241.22	276.93	60.624	368.39	296.92	30.912	263.74	563.16	1619.6	349.37	428.18	275.73	172.19	374.21	90.614	309.04	440.12	967.33	154.85	390.52	869.32	42.262	349.99	72.356	220.33	285.28	1070.1	498.97	506.53	34.972	301.03	553.26	31.716	288.42	156.65	210.5	410.49	194.36	201.15	327.08	481.37	33.494	212.39	335.13	1246.9	56.676	382.78	817.25	-6.8658	91.989	204.19	361.94
389	1.945	384.41	1599.6	388.55	350.38	1456.6	325.74	419.4	948.45	456.16	408.85	1409.3	475.03	355.53	1224	560.24	369.73	961.4	613.08	361.34	984.12	6.7784	434.41	559.06	482.15	476.64	671.49	476.87	383.55	833.57	606.83	436.1	790.26	614.02	308.18	1099.7	591.18	272.44	1366.3	418.58	497.27	674.36	163.27	381.9	740.86	493.49	269.22	1125.5	119.01	291.19	239.96	379.65	256.32	75.454	337.99	407.6	648.57	491.29	228.07	84.936	416.57	443.97	464.41	472.17	431.4	366.98	388.74	365.14	303.89	385.58	430.15	662.24	125	346.28	313.58	456.84	392.32	1440.4	150.96	294.24	1125.7	43.829	327.29	868.15	5.0607	440.12	574.73	144.14	482.89	1372.3	316.02	472.43	367.08	231.91	263.78	979.73	233.86	249.72	1147.9	298.35	249.89	975.67	338.02	452.54	848.08	573.1	422.1	759.28	113.05	382.6	1588.6	250.08	441.9	457.7	164.62	429.51	186.99	249.36	447.98	277.03	240.95	296.14	60.439	369.1	296.91	31.024	263.7	569.09	1620.1	350.24	428.95	275.47	171.66	374.33	90.673	308.96	445.7	967.97	154.86	401.15	871.19	42.965	350.01	72.332	220.33	288.99	1070.9	498.35	506.54	34.943	301	553.3	31.644	288.4	172.32	206.93	411.19	210.11	198.53	327.32	481.37	33.484	212.38	342.13	1248	56.789	394.04	818.94	-6.1311	107.34	198.65	361.84
390	1.95	390.47	1600.4	389.61	356.22	1457	326.41	425.96	949.22	455.97	414.11	1409.5	475.77	360.34	1224	560.07	371.66	961.54	613.21	370.43	985.37	7.1939	444.43	560.37	482.83	486.03	673.33	477.68	383.71	833.23	606.82	435.91	789.03	614.5	311.67	1099.9	590.64	278.11	1366.5	418.57	501.06	673.57	163.12	389.14	741.72	494.32	276.57	1126.2	118.58	305.98	238.8	379.87	274.93	74.141	339.06	416.19	649.6	492	246.28	83.2	417.11	455.31	465.59	473.14	444.12	368.58	389.26	378.39	304.18	386.18	433.59	662.47	124.81	359.93	313.22	456.99	398.31	1441.3	151.68	301.93	1126.3	43.629	338.04	869.01	5.4231	442.71	574.65	143.76	488.71	1372.8	316.67	472.85	366.77	231.45	269.84	980.09	233.98	255.63	1148.2	298.27	256.08	976.16	338.58	453.2	846.69	573.46	426.77	759.73	113.22	388.1	1589.5	251.27	442.94	457.57	164.04	429.77	186.85	249.17	448.41	276.81	240.56	315.57	59.934	370.38	297.03	31.125	263.74	575.1	1620.5	351.27	429.46	275.18	171.15	374.43	90.72	308.84	451.32	968.34	154.78	411.65	873.24	43.484	350.09	72.358	220.29	292.99	1071.7	497.73	506.61	34.946	300.99	553.38	31.558	288.39	187.93	203.85	411.49	226.03	196.03	327.86	481.35	33.461	212.34	349.25	1249	56.85	405.54	820.61	-5.5237	122.98	193.73	362.71
391	1.955	396.45	1600.6	390.79	362.01	1457.5	327.2	432.34	950.03	455.89	419.31	1409.7	476.72	365.15	1224.1	559.82	373.43	961.56	613.24	379.69	986.76	7.363	454.63	562.23	483.72	493.85	675.61	478.27	383.85	832.83	606.93	435.82	787.96	614.86	315.45	1100.3	590.24	283.96	1366.6	418.49	504.61	672.79	163.09	396.72	742.66	495.03	283.89	1127.1	118.2	321.03	237.71	380.25	293.78	72.69	338.86	425.21	651.08	492.49	264.96	81.339	418.17	466.47	467.33	473.81	456.8	370.05	389.63	391.94	304.42	386.73	437.45	662.59	124.69	373.81	312.71	457.43	404.57	1442.2	152.23	309.32	1126.8	43.59	348.75	870.04	5.5153	445.23	574.56	143.28	494.4	1373.3	317.35	473.23	366.53	230.91	275.85	980.81	234.84	261.56	1148.8	298.66	262.22	976.65	339.19	454.14	845.4	573.6	430.24	759.65	113.8	393.89	1590.2	252.6	444.33	457.43	163.48	430.1	186.68	248.78	449.17	276.64	239.92	334.69	59.292	371.38	297.48	30.278	264.66	581.06	1620.5	352.09	429.88	274.97	170.72	374.53	91.54	309.18	456.85	968.55	154.62	421.86	875.05	44.305	350.17	72.388	220.27	297.15	1072.5	497.35	506.66	34.94	300.97	553.44	31.495	288.37	203.62	200.09	412.03	241.96	192.89	328.43	481.38	33.404	212.24	356.04	1250.1	56.972	416.8	822.55	-4.7296	138.99	188.45	363.48
